# xmcd
#
# Track frame offsets: 
#        150
#        10737
#        39900
#        64260
#        85932
#        103960
#        121397
#        133197
#        159840
#        173372
#        186915
#        200480
#        216677
#        229247
#        243875
#        257182
#        275802
#        297247
#
# Disc length: 4602 seconds
#
# Revision: 0
# Processed by: cddbd v1.4PL0 Copyright (c) Steve Scherf et al.
# Submitted via: ExactAudioCopy v0.95a3
#
DISCID=0c11f812
DTITLE=Esther Phillips - Burnin' and Confessin' the Blues
DYEAR=1900
DGENRE=Blues
TTITLE0=Don't Let Me Lose This Dream
TTITLE1=And I Love Him
TTITLE2=Cry Me a River Blues
TTITLE3=Release Me
TTITLE4=Makin' Whoopee
TTITLE5=If It's the Last Thing I Do
TTITLE6=Shangri-La
TTITLE7=Please Send Me Someone to Love
TTITLE8=I'm Gettin' 'Long Alright
TTITLE9=I Wonder
TTITLE10=Confessin' the Blues
TTITLE11=Romance in the Dark
TTITLE12=C.C. Rider
TTITLE13=Cherry Red
TTITLE14=In the Evening
TTITLE15=I Love Paris
TTITLE16=Bye Bye Blackbird
TTITLE17=Blow Top Blues, Jelly Jelly Blues, Long John Blues
EXTD=
EXTT0=
EXTT1=
EXTT2=
EXTT3=
EXTT4=
EXTT5=
EXTT6=
EXTT7=
EXTT8=
EXTT9=
EXTT10=
EXTT11=
EXTT12=
EXTT13=
EXTT14=
EXTT15=
EXTT16=
EXTT17=
PLAYORDER=
